<?xml version="1.0" encoding="UTF-8" standalone="no"?>
<!DOCTYPE svg PUBLIC "-//W3C//DTD SVG 1.1//EN"
 "http://www.w3.org/Graphics/SVG/1.1/DTD/svg11.dtd">
<!-- Generated by graphviz version 2.36.0 (20140111.2315)
 -->
<!-- Title: lol Pages: 1 -->
<svg width="3057pt" height="260pt"
 viewBox="0.00 0.00 3057.00 260.00" xmlns="http://www.w3.org/2000/svg" xmlns:xlink="http://www.w3.org/1999/xlink">
<g id="graph0" class="graph" transform="scale(1 1) rotate(0) translate(4 256)">
<title>lol</title>
<polygon fill="white" stroke="none" points="-4,4 -4,-256 3053,-256 3053,4 -4,4"/>
<!-- CFZ2Subnet -->
<g id="node1" class="node"><title>CFZ2Subnet</title>
<polygon fill="none" stroke="black" points="2404.18,-180 2317.82,-180 2317.82,-144 2404.18,-144 2404.18,-180"/>
<text text-anchor="middle" x="2361" y="-157.8" font-family="Times,serif" font-size="14.00">CFZ2Subnet</text>
</g>
<!-- CFZ2SubnetRouteTableAssociation -->
<g id="node30" class="node"><title>CFZ2SubnetRouteTableAssociation</title>
<polygon fill="none" stroke="black" points="2553,-108 2335,-108 2335,-72 2553,-72 2553,-108"/>
<text text-anchor="middle" x="2444" y="-85.8" font-family="Times,serif" font-size="14.00">CFZ2SubnetRouteTableAssociation</text>
</g>
<!-- CFZ2Subnet&#45;&gt;CFZ2SubnetRouteTableAssociation -->
<g id="edge42" class="edge"><title>CFZ2Subnet&#45;&gt;CFZ2SubnetRouteTableAssociation</title>
<path fill="none" stroke="black" d="M2381.52,-143.697C2391.87,-134.965 2404.59,-124.24 2415.84,-114.75"/>
<polygon fill="black" stroke="black" points="2418.33,-117.227 2423.72,-108.104 2413.82,-111.876 2418.33,-117.227"/>
</g>
<!-- CFELBZ2Subnet -->
<g id="node2" class="node"><title>CFELBZ2Subnet</title>
<polygon fill="none" stroke="black" points="1997.01,-180 1882.99,-180 1882.99,-144 1997.01,-144 1997.01,-180"/>
<text text-anchor="middle" x="1940" y="-157.8" font-family="Times,serif" font-size="14.00">CFELBZ2Subnet</text>
</g>
<!-- CFELBLoadBalancer -->
<g id="node22" class="node"><title>CFELBLoadBalancer</title>
<polygon fill="none" stroke="black" points="2279.06,-108 2140.94,-108 2140.94,-72 2279.06,-72 2279.06,-108"/>
<text text-anchor="middle" x="2210" y="-85.8" font-family="Times,serif" font-size="14.00">CFELBLoadBalancer</text>
</g>
<!-- CFELBZ2Subnet&#45;&gt;CFELBLoadBalancer -->
<g id="edge29" class="edge"><title>CFELBZ2Subnet&#45;&gt;CFELBLoadBalancer</title>
<path fill="none" stroke="black" d="M1997.26,-146.155C2037.27,-135.782 2091.09,-121.828 2134.59,-110.55"/>
<polygon fill="black" stroke="black" points="2135.47,-113.938 2144.27,-108.04 2133.72,-107.162 2135.47,-113.938"/>
</g>
<!-- CFELBZ2SubnetRouteTableAssociation -->
<g id="node29" class="node"><title>CFELBZ2SubnetRouteTableAssociation</title>
<polygon fill="none" stroke="black" points="1861.33,-108 1616.67,-108 1616.67,-72 1861.33,-72 1861.33,-108"/>
<text text-anchor="middle" x="1739" y="-85.8" font-family="Times,serif" font-size="14.00">CFELBZ2SubnetRouteTableAssociation</text>
</g>
<!-- CFELBZ2Subnet&#45;&gt;CFELBZ2SubnetRouteTableAssociation -->
<g id="edge40" class="edge"><title>CFELBZ2Subnet&#45;&gt;CFELBZ2SubnetRouteTableAssociation</title>
<path fill="none" stroke="black" d="M1891.09,-143.966C1863,-134.185 1827.54,-121.836 1797.93,-111.524"/>
<polygon fill="black" stroke="black" points="1798.73,-108.094 1788.13,-108.111 1796.43,-114.705 1798.73,-108.094"/>
</g>
<!-- OpenSecurityGroup -->
<g id="node3" class="node"><title>OpenSecurityGroup</title>
<polygon fill="none" stroke="black" points="152.065,-180 23.9354,-180 23.9354,-144 152.065,-144 152.065,-180"/>
<text text-anchor="middle" x="88" y="-157.8" font-family="Times,serif" font-size="14.00">OpenSecurityGroup</text>
</g>
<!-- NATZ2NATInstance -->
<g id="node15" class="node"><title>NATZ2NATInstance</title>
<polygon fill="none" stroke="black" points="131.977,-108 0.0229885,-108 0.0229885,-72 131.977,-72 131.977,-108"/>
<text text-anchor="middle" x="66" y="-85.8" font-family="Times,serif" font-size="14.00">NATZ2NATInstance</text>
</g>
<!-- OpenSecurityGroup&#45;&gt;NATZ2NATInstance -->
<g id="edge16" class="edge"><title>OpenSecurityGroup&#45;&gt;NATZ2NATInstance</title>
<path fill="none" stroke="black" d="M82.5618,-143.697C80.1108,-135.898 77.1598,-126.509 74.432,-117.829"/>
<polygon fill="black" stroke="black" points="77.713,-116.595 71.3756,-108.104 71.035,-118.694 77.713,-116.595"/>
</g>
<!-- NATZ1NATInstance -->
<g id="node27" class="node"><title>NATZ1NATInstance</title>
<polygon fill="none" stroke="black" points="282.977,-108 151.023,-108 151.023,-72 282.977,-72 282.977,-108"/>
<text text-anchor="middle" x="217" y="-85.8" font-family="Times,serif" font-size="14.00">NATZ1NATInstance</text>
</g>
<!-- OpenSecurityGroup&#45;&gt;NATZ1NATInstance -->
<g id="edge35" class="edge"><title>OpenSecurityGroup&#45;&gt;NATZ1NATInstance</title>
<path fill="none" stroke="black" d="M119.557,-143.876C136.658,-134.596 157.982,-123.025 176.319,-113.075"/>
<polygon fill="black" stroke="black" points="178.202,-116.035 185.322,-108.19 174.863,-109.883 178.202,-116.035"/>
</g>
<!-- CFELBZ2SubnetRouteTable -->
<g id="node4" class="node"><title>CFELBZ2SubnetRouteTable</title>
<polygon fill="none" stroke="black" points="1527.26,-180 1348.74,-180 1348.74,-144 1527.26,-144 1527.26,-180"/>
<text text-anchor="middle" x="1438" y="-157.8" font-family="Times,serif" font-size="14.00">CFELBZ2SubnetRouteTable</text>
</g>
<!-- CFELBZ2SubnetRoute -->
<g id="node7" class="node"><title>CFELBZ2SubnetRoute</title>
<polygon fill="none" stroke="black" points="1433.59,-108 1286.41,-108 1286.41,-72 1433.59,-72 1433.59,-108"/>
<text text-anchor="middle" x="1360" y="-85.8" font-family="Times,serif" font-size="14.00">CFELBZ2SubnetRoute</text>
</g>
<!-- CFELBZ2SubnetRouteTable&#45;&gt;CFELBZ2SubnetRoute -->
<g id="edge9" class="edge"><title>CFELBZ2SubnetRouteTable&#45;&gt;CFELBZ2SubnetRoute</title>
<path fill="none" stroke="black" d="M1418.72,-143.697C1409.08,-135.05 1397.27,-124.449 1386.77,-115.027"/>
<polygon fill="black" stroke="black" points="1388.84,-112.179 1379.06,-108.104 1384.16,-117.388 1388.84,-112.179"/>
</g>
<!-- CFELBZ2SubnetRouteTable&#45;&gt;CFELBZ2SubnetRouteTableAssociation -->
<g id="edge41" class="edge"><title>CFELBZ2SubnetRouteTable&#45;&gt;CFELBZ2SubnetRouteTableAssociation</title>
<path fill="none" stroke="black" d="M1511.25,-143.966C1554.94,-133.805 1610.55,-120.872 1655.88,-110.33"/>
<polygon fill="black" stroke="black" points="1656.74,-113.724 1665.68,-108.05 1655.15,-106.906 1656.74,-113.724"/>
</g>
<!-- WebSecurityGroup -->
<g id="node5" class="node"><title>WebSecurityGroup</title>
<polygon fill="none" stroke="black" points="1668.31,-180 1545.69,-180 1545.69,-144 1668.31,-144 1668.31,-180"/>
<text text-anchor="middle" x="1607" y="-157.8" font-family="Times,serif" font-size="14.00">WebSecurityGroup</text>
</g>
<!-- CFELBZ1SubnetRoute -->
<g id="node6" class="node"><title>CFELBZ1SubnetRoute</title>
<polygon fill="none" stroke="black" points="1598.59,-108 1451.41,-108 1451.41,-72 1598.59,-72 1598.59,-108"/>
<text text-anchor="middle" x="1525" y="-85.8" font-family="Times,serif" font-size="14.00">CFELBZ1SubnetRoute</text>
</g>
<!-- CFZ1Subnet -->
<g id="node8" class="node"><title>CFZ1Subnet</title>
<polygon fill="none" stroke="black" points="2510.18,-180 2423.82,-180 2423.82,-144 2510.18,-144 2510.18,-180"/>
<text text-anchor="middle" x="2467" y="-157.8" font-family="Times,serif" font-size="14.00">CFZ1Subnet</text>
</g>
<!-- CFZ1SubnetRouteTableAssociation -->
<g id="node32" class="node"><title>CFZ1SubnetRouteTableAssociation</title>
<polygon fill="none" stroke="black" points="2831,-108 2613,-108 2613,-72 2831,-72 2831,-108"/>
<text text-anchor="middle" x="2722" y="-85.8" font-family="Times,serif" font-size="14.00">CFZ1SubnetRouteTableAssociation</text>
</g>
<!-- CFZ1Subnet&#45;&gt;CFZ1SubnetRouteTableAssociation -->
<g id="edge45" class="edge"><title>CFZ1Subnet&#45;&gt;CFZ1SubnetRouteTableAssociation</title>
<path fill="none" stroke="black" d="M2510.33,-146.893C2513.59,-145.894 2516.85,-144.919 2520,-144 2560.42,-132.224 2605.74,-120.226 2643.19,-110.63"/>
<polygon fill="black" stroke="black" points="2644.21,-113.983 2653.03,-108.117 2642.47,-107.2 2644.21,-113.983"/>
</g>
<!-- DHCPOptions -->
<g id="node9" class="node"><title>DHCPOptions</title>
<polygon fill="none" stroke="black" points="3002.26,-252 2905.74,-252 2905.74,-216 3002.26,-216 3002.26,-252"/>
<text text-anchor="middle" x="2954" y="-229.8" font-family="Times,serif" font-size="14.00">DHCPOptions</text>
</g>
<!-- VPCDHCPOptionsAssociation -->
<g id="node14" class="node"><title>VPCDHCPOptionsAssociation</title>
<polygon fill="none" stroke="black" points="3049.27,-180 2858.73,-180 2858.73,-144 3049.27,-144 3049.27,-180"/>
<text text-anchor="middle" x="2954" y="-157.8" font-family="Times,serif" font-size="14.00">VPCDHCPOptionsAssociation</text>
</g>
<!-- DHCPOptions&#45;&gt;VPCDHCPOptionsAssociation -->
<g id="edge15" class="edge"><title>DHCPOptions&#45;&gt;VPCDHCPOptionsAssociation</title>
<path fill="none" stroke="black" d="M2954,-215.697C2954,-207.983 2954,-198.712 2954,-190.112"/>
<polygon fill="black" stroke="black" points="2957.5,-190.104 2954,-180.104 2950.5,-190.104 2957.5,-190.104"/>
</g>
<!-- VPCGatewayInternetGateway -->
<g id="node10" class="node"><title>VPCGatewayInternetGateway</title>
<polygon fill="none" stroke="black" points="1293.2,-180 1106.8,-180 1106.8,-144 1293.2,-144 1293.2,-180"/>
<text text-anchor="middle" x="1200" y="-157.8" font-family="Times,serif" font-size="14.00">VPCGatewayInternetGateway</text>
</g>
<!-- VPCGatewayInternetGateway&#45;&gt;CFELBZ1SubnetRoute -->
<g id="edge6" class="edge"><title>VPCGatewayInternetGateway&#45;&gt;CFELBZ1SubnetRoute</title>
<path fill="none" stroke="black" d="M1279.09,-143.966C1328.32,-133.361 1391.57,-119.739 1441.59,-108.964"/>
<polygon fill="black" stroke="black" points="1442.38,-112.376 1451.41,-106.849 1440.9,-105.533 1442.38,-112.376"/>
</g>
<!-- VPCGatewayInternetGateway&#45;&gt;CFELBZ2SubnetRoute -->
<g id="edge8" class="edge"><title>VPCGatewayInternetGateway&#45;&gt;CFELBZ2SubnetRoute</title>
<path fill="none" stroke="black" d="M1239.14,-143.876C1261.01,-134.307 1288.46,-122.3 1311.66,-112.148"/>
<polygon fill="black" stroke="black" points="1313.23,-115.283 1320.99,-108.068 1310.42,-108.87 1313.23,-115.283"/>
</g>
<!-- VPCInternetGateway -->
<g id="node19" class="node"><title>VPCInternetGateway</title>
<polygon fill="none" stroke="black" points="1267.89,-108 1132.11,-108 1132.11,-72 1267.89,-72 1267.89,-108"/>
<text text-anchor="middle" x="1200" y="-85.8" font-family="Times,serif" font-size="14.00">VPCInternetGateway</text>
</g>
<!-- VPCGatewayInternetGateway&#45;&gt;VPCInternetGateway -->
<g id="edge23" class="edge"><title>VPCGatewayInternetGateway&#45;&gt;VPCInternetGateway</title>
<path fill="none" stroke="black" d="M1200,-143.697C1200,-135.983 1200,-126.712 1200,-118.112"/>
<polygon fill="black" stroke="black" points="1203.5,-118.104 1200,-108.104 1196.5,-118.104 1203.5,-118.104"/>
</g>
<!-- BOSHZ2SubnetRoute -->
<g id="node20" class="node"><title>BOSHZ2SubnetRoute</title>
<polygon fill="none" stroke="black" points="954.42,-108 813.58,-108 813.58,-72 954.42,-72 954.42,-108"/>
<text text-anchor="middle" x="884" y="-85.8" font-family="Times,serif" font-size="14.00">BOSHZ2SubnetRoute</text>
</g>
<!-- VPCGatewayInternetGateway&#45;&gt;BOSHZ2SubnetRoute -->
<g id="edge24" class="edge"><title>VPCGatewayInternetGateway&#45;&gt;BOSHZ2SubnetRoute</title>
<path fill="none" stroke="black" d="M1123.1,-143.966C1074.99,-133.308 1013.11,-119.601 964.359,-108.801"/>
<polygon fill="black" stroke="black" points="964.999,-105.358 954.478,-106.612 963.485,-112.192 964.999,-105.358"/>
</g>
<!-- BOSHZ1SubnetRoute -->
<g id="node28" class="node"><title>BOSHZ1SubnetRoute</title>
<polygon fill="none" stroke="black" points="1113.42,-108 972.58,-108 972.58,-72 1113.42,-72 1113.42,-108"/>
<text text-anchor="middle" x="1043" y="-85.8" font-family="Times,serif" font-size="14.00">BOSHZ1SubnetRoute</text>
</g>
<!-- VPCGatewayInternetGateway&#45;&gt;BOSHZ1SubnetRoute -->
<g id="edge38" class="edge"><title>VPCGatewayInternetGateway&#45;&gt;BOSHZ1SubnetRoute</title>
<path fill="none" stroke="black" d="M1161.59,-143.876C1140.13,-134.307 1113.2,-122.3 1090.43,-112.148"/>
<polygon fill="black" stroke="black" points="1091.84,-108.944 1081.28,-108.068 1088.99,-115.337 1091.84,-108.944"/>
</g>
<!-- CFELBZ1SubnetRouteTableAssociation -->
<g id="node11" class="node"><title>CFELBZ1SubnetRouteTableAssociation</title>
<polygon fill="none" stroke="black" points="2123.33,-108 1878.67,-108 1878.67,-72 2123.33,-72 2123.33,-108"/>
<text text-anchor="middle" x="2001" y="-85.8" font-family="Times,serif" font-size="14.00">CFELBZ1SubnetRouteTableAssociation</text>
</g>
<!-- VPC -->
<g id="node12" class="node"><title>VPC</title>
<polygon fill="none" stroke="black" points="1803,-252 1749,-252 1749,-216 1803,-216 1803,-252"/>
<text text-anchor="middle" x="1776" y="-229.8" font-family="Times,serif" font-size="14.00">VPC</text>
</g>
<!-- VPC&#45;&gt;CFZ2Subnet -->
<g id="edge1" class="edge"><title>VPC&#45;&gt;CFZ2Subnet</title>
<path fill="none" stroke="black" d="M1803.09,-232.257C1881.75,-229.683 2116.64,-219.032 2307,-180 2307.22,-179.956 2307.43,-179.911 2307.65,-179.865"/>
<polygon fill="black" stroke="black" points="2308.66,-183.223 2317.58,-177.511 2307.05,-176.412 2308.66,-183.223"/>
</g>
<!-- VPC&#45;&gt;CFELBZ2Subnet -->
<g id="edge2" class="edge"><title>VPC&#45;&gt;CFELBZ2Subnet</title>
<path fill="none" stroke="black" d="M1803.08,-221.441C1826.79,-211.323 1861.82,-196.369 1890.52,-184.121"/>
<polygon fill="black" stroke="black" points="1892.16,-187.227 1899.98,-180.082 1889.41,-180.789 1892.16,-187.227"/>
</g>
<!-- VPC&#45;&gt;OpenSecurityGroup -->
<g id="edge3" class="edge"><title>VPC&#45;&gt;OpenSecurityGroup</title>
<path fill="none" stroke="black" d="M1748.89,-232.838C1565.78,-231.633 507.04,-222.937 162.349,-179.99"/>
<polygon fill="black" stroke="black" points="162.725,-176.509 152.361,-178.709 161.835,-183.452 162.725,-176.509"/>
</g>
<!-- VPC&#45;&gt;CFELBZ2SubnetRouteTable -->
<g id="edge4" class="edge"><title>VPC&#45;&gt;CFELBZ2SubnetRouteTable</title>
<path fill="none" stroke="black" d="M1748.91,-227.39C1702.08,-217.691 1603.95,-197.368 1530.38,-182.132"/>
<polygon fill="black" stroke="black" points="1530.67,-178.619 1520.17,-180.018 1529.26,-185.473 1530.67,-178.619"/>
</g>
<!-- VPC&#45;&gt;WebSecurityGroup -->
<g id="edge5" class="edge"><title>VPC&#45;&gt;WebSecurityGroup</title>
<path fill="none" stroke="black" d="M1748.85,-221.753C1724.35,-211.605 1687.67,-196.413 1657.75,-184.019"/>
<polygon fill="black" stroke="black" points="1658.87,-180.697 1648.29,-180.104 1656.19,-187.164 1658.87,-180.697"/>
</g>
<!-- VPC&#45;&gt;CFZ1Subnet -->
<g id="edge10" class="edge"><title>VPC&#45;&gt;CFZ1Subnet</title>
<path fill="none" stroke="black" d="M1803.31,-232.882C1892.08,-232.044 2180.25,-225.73 2413,-180 2413.22,-179.957 2413.43,-179.914 2413.65,-179.87"/>
<polygon fill="black" stroke="black" points="2414.64,-183.235 2423.6,-177.575 2413.06,-176.414 2414.64,-183.235"/>
</g>
<!-- BOSHZ2Subnet -->
<g id="node13" class="node"><title>BOSHZ2Subnet</title>
<polygon fill="none" stroke="black" points="473.341,-180 366.659,-180 366.659,-144 473.341,-144 473.341,-180"/>
<text text-anchor="middle" x="420" y="-157.8" font-family="Times,serif" font-size="14.00">BOSHZ2Subnet</text>
</g>
<!-- VPC&#45;&gt;BOSHZ2Subnet -->
<g id="edge13" class="edge"><title>VPC&#45;&gt;BOSHZ2Subnet</title>
<path fill="none" stroke="black" d="M1748.87,-232.325C1619.7,-229 1054.29,-213.168 592,-180 556.081,-177.423 516.039,-173.526 483.633,-170.113"/>
<polygon fill="black" stroke="black" points="483.71,-166.601 473.396,-169.024 482.969,-173.562 483.71,-166.601"/>
</g>
<!-- VPC&#45;&gt;VPCDHCPOptionsAssociation -->
<g id="edge14" class="edge"><title>VPC&#45;&gt;VPCDHCPOptionsAssociation</title>
<path fill="none" stroke="black" d="M1803.04,-232.77C1923.8,-231.51 2426.04,-223.832 2848.53,-179.968"/>
<polygon fill="black" stroke="black" points="2848.91,-183.447 2858.49,-178.925 2848.18,-176.485 2848.91,-183.447"/>
</g>
<!-- CFZ2SubnetRouteTable -->
<g id="node16" class="node"><title>CFZ2SubnetRouteTable</title>
<polygon fill="none" stroke="black" points="2298.42,-180 2147.58,-180 2147.58,-144 2298.42,-144 2298.42,-180"/>
<text text-anchor="middle" x="2223" y="-157.8" font-family="Times,serif" font-size="14.00">CFZ2SubnetRouteTable</text>
</g>
<!-- VPC&#45;&gt;CFZ2SubnetRouteTable -->
<g id="edge19" class="edge"><title>VPC&#45;&gt;CFZ2SubnetRouteTable</title>
<path fill="none" stroke="black" d="M1803.32,-229.494C1862.26,-221.825 2005.91,-202.568 2137.26,-180.077"/>
<polygon fill="black" stroke="black" points="2138.23,-183.46 2147.49,-178.313 2137.05,-176.562 2138.23,-183.46"/>
</g>
<!-- CFELBZ1SubnetRouteTable -->
<g id="node17" class="node"><title>CFELBZ1SubnetRouteTable</title>
<polygon fill="none" stroke="black" points="1865.26,-180 1686.74,-180 1686.74,-144 1865.26,-144 1865.26,-180"/>
<text text-anchor="middle" x="1776" y="-157.8" font-family="Times,serif" font-size="14.00">CFELBZ1SubnetRouteTable</text>
</g>
<!-- VPC&#45;&gt;CFELBZ1SubnetRouteTable -->
<g id="edge20" class="edge"><title>VPC&#45;&gt;CFELBZ1SubnetRouteTable</title>
<path fill="none" stroke="black" d="M1776,-215.697C1776,-207.983 1776,-198.712 1776,-190.112"/>
<polygon fill="black" stroke="black" points="1779.5,-190.104 1776,-180.104 1772.5,-190.104 1779.5,-190.104"/>
</g>
<!-- BOSHZ1SubnetRouteTable -->
<g id="node18" class="node"><title>BOSHZ1SubnetRouteTable</title>
<polygon fill="none" stroke="black" points="1089.09,-180 916.911,-180 916.911,-144 1089.09,-144 1089.09,-180"/>
<text text-anchor="middle" x="1003" y="-157.8" font-family="Times,serif" font-size="14.00">BOSHZ1SubnetRouteTable</text>
</g>
<!-- VPC&#45;&gt;BOSHZ1SubnetRouteTable -->
<g id="edge21" class="edge"><title>VPC&#45;&gt;BOSHZ1SubnetRouteTable</title>
<path fill="none" stroke="black" d="M1748.77,-231.842C1658.03,-227.778 1357.55,-212.679 1099.1,-180.068"/>
<polygon fill="black" stroke="black" points="1099.52,-176.593 1089.16,-178.801 1098.63,-183.537 1099.52,-176.593"/>
</g>
<!-- VPC&#45;&gt;VPCInternetGateway -->
<g id="edge22" class="edge"><title>VPC&#45;&gt;VPCInternetGateway</title>
<path fill="none" stroke="black" d="M1748.86,-231.916C1665.33,-228.238 1413.31,-214.484 1340,-180 1318.95,-170.098 1320.95,-157.495 1302,-144 1285.54,-132.28 1266.15,-121.54 1248.71,-112.838"/>
<polygon fill="black" stroke="black" points="1249.78,-109.465 1239.26,-108.22 1246.71,-115.754 1249.78,-109.465"/>
</g>
<!-- CFZ1SubnetRouteTable -->
<g id="node23" class="node"><title>CFZ1SubnetRouteTable</title>
<polygon fill="none" stroke="black" points="2840.42,-180 2689.58,-180 2689.58,-144 2840.42,-144 2840.42,-180"/>
<text text-anchor="middle" x="2765" y="-157.8" font-family="Times,serif" font-size="14.00">CFZ1SubnetRouteTable</text>
</g>
<!-- VPC&#45;&gt;CFZ1SubnetRouteTable -->
<g id="edge30" class="edge"><title>VPC&#45;&gt;CFZ1SubnetRouteTable</title>
<path fill="none" stroke="black" d="M1803.09,-232.758C1912.86,-231.491 2335.12,-223.871 2679,-180 2679.1,-179.987 2679.21,-179.973 2679.31,-179.96"/>
<polygon fill="black" stroke="black" points="2679.71,-183.439 2689.12,-178.583 2678.73,-176.507 2679.71,-183.439"/>
</g>
<!-- BOSHZ2SubnetRouteTable -->
<g id="node25" class="node"><title>BOSHZ2SubnetRouteTable</title>
<polygon fill="none" stroke="black" points="899.089,-180 726.911,-180 726.911,-144 899.089,-144 899.089,-180"/>
<text text-anchor="middle" x="813" y="-157.8" font-family="Times,serif" font-size="14.00">BOSHZ2SubnetRouteTable</text>
</g>
<!-- VPC&#45;&gt;BOSHZ2SubnetRouteTable -->
<g id="edge33" class="edge"><title>VPC&#45;&gt;BOSHZ2SubnetRouteTable</title>
<path fill="none" stroke="black" d="M1748.9,-232.49C1642.84,-230.257 1245.66,-219.652 909.088,-180.046"/>
<polygon fill="black" stroke="black" points="909.491,-176.57 899.148,-178.866 908.666,-183.521 909.491,-176.57"/>
</g>
<!-- InternalSecurityGroup -->
<g id="node26" class="node"><title>InternalSecurityGroup</title>
<polygon fill="none" stroke="black" points="2670.47,-180 2529.53,-180 2529.53,-144 2670.47,-144 2670.47,-180"/>
<text text-anchor="middle" x="2600" y="-157.8" font-family="Times,serif" font-size="14.00">InternalSecurityGroup</text>
</g>
<!-- VPC&#45;&gt;InternalSecurityGroup -->
<g id="edge34" class="edge"><title>VPC&#45;&gt;InternalSecurityGroup</title>
<path fill="none" stroke="black" d="M1803.13,-232.393C1900.46,-229.932 2241.08,-218.893 2519,-180 2519.11,-179.985 2519.21,-179.97 2519.32,-179.955"/>
<polygon fill="black" stroke="black" points="2520.07,-183.382 2529.42,-178.402 2519,-176.463 2520.07,-183.382"/>
</g>
<!-- CFELBZ1Subnet -->
<g id="node31" class="node"><title>CFELBZ1Subnet</title>
<polygon fill="none" stroke="black" points="2129.01,-180 2014.99,-180 2014.99,-144 2129.01,-144 2129.01,-180"/>
<text text-anchor="middle" x="2072" y="-157.8" font-family="Times,serif" font-size="14.00">CFELBZ1Subnet</text>
</g>
<!-- VPC&#45;&gt;CFELBZ1Subnet -->
<g id="edge44" class="edge"><title>VPC&#45;&gt;CFELBZ1Subnet</title>
<path fill="none" stroke="black" d="M1803.32,-226.943C1844.68,-217.72 1925.93,-199.405 2004.7,-180.289"/>
<polygon fill="black" stroke="black" points="2005.9,-183.599 2014.79,-177.833 2004.24,-176.798 2005.9,-183.599"/>
</g>
<!-- BOSHZ1Subnet -->
<g id="node34" class="node"><title>BOSHZ1Subnet</title>
<polygon fill="none" stroke="black" points="708.341,-180 601.659,-180 601.659,-144 708.341,-144 708.341,-180"/>
<text text-anchor="middle" x="655" y="-157.8" font-family="Times,serif" font-size="14.00">BOSHZ1Subnet</text>
</g>
<!-- VPC&#45;&gt;BOSHZ1Subnet -->
<g id="edge49" class="edge"><title>VPC&#45;&gt;BOSHZ1Subnet</title>
<path fill="none" stroke="black" d="M1748.71,-232.422C1606.2,-229.287 945.737,-213.273 718.61,-179.811"/>
<polygon fill="black" stroke="black" points="718.863,-176.309 708.448,-178.256 717.804,-183.228 718.863,-176.309"/>
</g>
<!-- BOSHZ2Subnet&#45;&gt;NATZ2NATInstance -->
<g id="edge17" class="edge"><title>BOSHZ2Subnet&#45;&gt;NATZ2NATInstance</title>
<path fill="none" stroke="black" d="M366.606,-151.34C312.698,-141.469 226.794,-125.423 142.318,-108.03"/>
<polygon fill="black" stroke="black" points="142.794,-104.555 132.292,-105.958 141.377,-111.41 142.794,-104.555"/>
</g>
<!-- BOSHZ2SubnetRouteTableAssociation -->
<g id="node21" class="node"><title>BOSHZ2SubnetRouteTableAssociation</title>
<polygon fill="none" stroke="black" points="539.167,-108 300.833,-108 300.833,-72 539.167,-72 539.167,-108"/>
<text text-anchor="middle" x="420" y="-85.8" font-family="Times,serif" font-size="14.00">BOSHZ2SubnetRouteTableAssociation</text>
</g>
<!-- BOSHZ2Subnet&#45;&gt;BOSHZ2SubnetRouteTableAssociation -->
<g id="edge26" class="edge"><title>BOSHZ2Subnet&#45;&gt;BOSHZ2SubnetRouteTableAssociation</title>
<path fill="none" stroke="black" d="M420,-143.697C420,-135.983 420,-126.712 420,-118.112"/>
<polygon fill="black" stroke="black" points="423.5,-118.104 420,-108.104 416.5,-118.104 423.5,-118.104"/>
</g>
<!-- CFZ2SubnetRoute -->
<g id="node33" class="node"><title>CFZ2SubnetRoute</title>
<polygon fill="none" stroke="black" points="1246.26,-36 1125.74,-36 1125.74,-0 1246.26,-0 1246.26,-36"/>
<text text-anchor="middle" x="1186" y="-13.8" font-family="Times,serif" font-size="14.00">CFZ2SubnetRoute</text>
</g>
<!-- NATZ2NATInstance&#45;&gt;CFZ2SubnetRoute -->
<g id="edge47" class="edge"><title>NATZ2NATInstance&#45;&gt;CFZ2SubnetRoute</title>
<path fill="none" stroke="black" d="M132.199,-73.4994C135.504,-72.9433 138.785,-72.438 142,-72 505.9,-22.4275 946.852,-18.1098 1115.65,-18.4766"/>
<polygon fill="black" stroke="black" points="1115.64,-21.9764 1125.65,-18.5046 1115.66,-14.9765 1115.64,-21.9764"/>
</g>
<!-- CFZ2SubnetRouteTable&#45;&gt;CFZ2SubnetRouteTableAssociation -->
<g id="edge43" class="edge"><title>CFZ2SubnetRouteTable&#45;&gt;CFZ2SubnetRouteTableAssociation</title>
<path fill="none" stroke="black" d="M2276.78,-143.966C2307.93,-134.1 2347.32,-121.622 2380.05,-111.255"/>
<polygon fill="black" stroke="black" points="2381.5,-114.467 2389.98,-108.111 2379.39,-107.794 2381.5,-114.467"/>
</g>
<!-- CFZ2SubnetRouteTable&#45;&gt;CFZ2SubnetRoute -->
<g id="edge48" class="edge"><title>CFZ2SubnetRouteTable&#45;&gt;CFZ2SubnetRoute</title>
<path fill="none" stroke="black" d="M2250.06,-143.921C2276.48,-125.22 2309.78,-94.8535 2288,-72 2252.38,-34.6206 1494.65,-22.6064 1256.78,-19.7486"/>
<polygon fill="black" stroke="black" points="1256.57,-16.2459 1246.52,-19.6272 1256.48,-23.2454 1256.57,-16.2459"/>
</g>
<!-- CFELBZ1SubnetRouteTable&#45;&gt;CFELBZ1SubnetRoute -->
<g id="edge7" class="edge"><title>CFELBZ1SubnetRouteTable&#45;&gt;CFELBZ1SubnetRoute</title>
<path fill="none" stroke="black" d="M1714.92,-143.966C1679.09,-133.972 1633.64,-121.298 1596.19,-110.854"/>
<polygon fill="black" stroke="black" points="1596.93,-107.426 1586.35,-108.111 1595.05,-114.169 1596.93,-107.426"/>
</g>
<!-- CFELBZ1SubnetRouteTable&#45;&gt;CFELBZ1SubnetRouteTableAssociation -->
<g id="edge12" class="edge"><title>CFELBZ1SubnetRouteTable&#45;&gt;CFELBZ1SubnetRouteTableAssociation</title>
<path fill="none" stroke="black" d="M1830.75,-143.966C1862.6,-134.057 1902.92,-121.514 1936.33,-111.121"/>
<polygon fill="black" stroke="black" points="1937.49,-114.424 1946,-108.111 1935.41,-107.74 1937.49,-114.424"/>
</g>
<!-- BOSHZ1SubnetRouteTableAssociation -->
<g id="node24" class="node"><title>BOSHZ1SubnetRouteTableAssociation</title>
<polygon fill="none" stroke="black" points="795.167,-108 556.833,-108 556.833,-72 795.167,-72 795.167,-108"/>
<text text-anchor="middle" x="676" y="-85.8" font-family="Times,serif" font-size="14.00">BOSHZ1SubnetRouteTableAssociation</text>
</g>
<!-- BOSHZ1SubnetRouteTable&#45;&gt;BOSHZ1SubnetRouteTableAssociation -->
<g id="edge32" class="edge"><title>BOSHZ1SubnetRouteTable&#45;&gt;BOSHZ1SubnetRouteTableAssociation</title>
<path fill="none" stroke="black" d="M923.425,-143.966C875.76,-133.762 815.039,-120.764 765.68,-110.198"/>
<polygon fill="black" stroke="black" points="766.159,-106.721 755.648,-108.05 764.694,-113.566 766.159,-106.721"/>
</g>
<!-- BOSHZ1SubnetRouteTable&#45;&gt;BOSHZ1SubnetRoute -->
<g id="edge39" class="edge"><title>BOSHZ1SubnetRouteTable&#45;&gt;BOSHZ1SubnetRoute</title>
<path fill="none" stroke="black" d="M1012.89,-143.697C1017.49,-135.644 1023.06,-125.894 1028.15,-116.982"/>
<polygon fill="black" stroke="black" points="1031.3,-118.523 1033.23,-108.104 1025.23,-115.05 1031.3,-118.523"/>
</g>
<!-- CFZ1SubnetRouteTable&#45;&gt;CFZ1SubnetRouteTableAssociation -->
<g id="edge46" class="edge"><title>CFZ1SubnetRouteTable&#45;&gt;CFZ1SubnetRouteTableAssociation</title>
<path fill="none" stroke="black" d="M2754.37,-143.697C2749.37,-135.559 2743.31,-125.689 2737.79,-116.701"/>
<polygon fill="black" stroke="black" points="2740.72,-114.793 2732.51,-108.104 2734.76,-118.457 2740.72,-114.793"/>
</g>
<!-- BOSHZ2SubnetRouteTable&#45;&gt;BOSHZ2SubnetRoute -->
<g id="edge25" class="edge"><title>BOSHZ2SubnetRouteTable&#45;&gt;BOSHZ2SubnetRoute</title>
<path fill="none" stroke="black" d="M830.551,-143.697C839.234,-135.135 849.863,-124.656 859.348,-115.304"/>
<polygon fill="black" stroke="black" points="861.988,-117.617 866.651,-108.104 857.073,-112.633 861.988,-117.617"/>
</g>
<!-- BOSHZ2SubnetRouteTable&#45;&gt;BOSHZ2SubnetRouteTableAssociation -->
<g id="edge27" class="edge"><title>BOSHZ2SubnetRouteTable&#45;&gt;BOSHZ2SubnetRouteTableAssociation</title>
<path fill="none" stroke="black" d="M726.754,-145.638C667.559,-135.095 588.627,-121.035 525.655,-109.819"/>
<polygon fill="black" stroke="black" points="526.15,-106.352 515.691,-108.044 524.922,-113.244 526.15,-106.352"/>
</g>
<!-- CFELBZ1Subnet&#45;&gt;CFELBZ1SubnetRouteTableAssociation -->
<g id="edge11" class="edge"><title>CFELBZ1Subnet&#45;&gt;CFELBZ1SubnetRouteTableAssociation</title>
<path fill="none" stroke="black" d="M2054.45,-143.697C2045.77,-135.135 2035.14,-124.656 2025.65,-115.304"/>
<polygon fill="black" stroke="black" points="2027.93,-112.633 2018.35,-108.104 2023.01,-117.617 2027.93,-112.633"/>
</g>
<!-- CFELBZ1Subnet&#45;&gt;CFELBLoadBalancer -->
<g id="edge28" class="edge"><title>CFELBZ1Subnet&#45;&gt;CFELBLoadBalancer</title>
<path fill="none" stroke="black" d="M2105.76,-143.876C2124.22,-134.512 2147.28,-122.814 2167.02,-112.803"/>
<polygon fill="black" stroke="black" points="2168.78,-115.835 2176.11,-108.19 2165.61,-109.592 2168.78,-115.835"/>
</g>
<!-- BOSHZ1Subnet&#45;&gt;BOSHZ1SubnetRouteTableAssociation -->
<g id="edge31" class="edge"><title>BOSHZ1Subnet&#45;&gt;BOSHZ1SubnetRouteTableAssociation</title>
<path fill="none" stroke="black" d="M660.191,-143.697C662.531,-135.898 665.347,-126.509 667.951,-117.829"/>
<polygon fill="black" stroke="black" points="671.348,-118.688 670.869,-108.104 664.643,-116.677 671.348,-118.688"/>
</g>
<!-- BOSHZ1Subnet&#45;&gt;NATZ1NATInstance -->
<g id="edge36" class="edge"><title>BOSHZ1Subnet&#45;&gt;NATZ1NATInstance</title>
<path fill="none" stroke="black" d="M601.58,-154.524C532.611,-145.87 408.689,-129.328 293.265,-108.161"/>
<polygon fill="black" stroke="black" points="293.665,-104.676 283.195,-106.298 292.392,-111.559 293.665,-104.676"/>
</g>
<!-- AWS::Region -->
<g id="node35" class="node"><title>AWS::Region</title>
<polygon fill="none" stroke="black" points="264.163,-180 169.837,-180 169.837,-144 264.163,-144 264.163,-180"/>
<text text-anchor="middle" x="217" y="-157.8" font-family="Times,serif" font-size="14.00">AWS::Region</text>
</g>
<!-- AWS::Region&#45;&gt;NATZ2NATInstance -->
<g id="edge18" class="edge"><title>AWS::Region&#45;&gt;NATZ2NATInstance</title>
<path fill="none" stroke="black" d="M180.061,-143.876C159.51,-134.349 133.749,-122.407 111.911,-112.283"/>
<polygon fill="black" stroke="black" points="113.363,-109.099 102.819,-108.068 110.419,-115.45 113.363,-109.099"/>
</g>
<!-- AWS::Region&#45;&gt;NATZ1NATInstance -->
<g id="edge37" class="edge"><title>AWS::Region&#45;&gt;NATZ1NATInstance</title>
<path fill="none" stroke="black" d="M217,-143.697C217,-135.983 217,-126.712 217,-118.112"/>
<polygon fill="black" stroke="black" points="220.5,-118.104 217,-108.104 213.5,-118.104 220.5,-118.104"/>
</g>
</g>
</svg>
